<?xml version="1.0" standalone="no"?>
<!DOCTYPE svg PUBLIC "-//W3C//DTD SVG 20010904//EN"
 "http://www.w3.org/TR/2001/REC-SVG-20010904/DTD/svg10.dtd">
<svg version="1.0" xmlns="http://www.w3.org/2000/svg"
 width="500.000000pt" height="500.000000pt" viewBox="0 0 500.000000 500.000000"
 preserveAspectRatio="xMidYMid meet">

<g transform="translate(0.000000,500.000000) scale(0.100000,-0.100000)"
fill="#000000" stroke="none">
<path d="M1226 4169 c-23 -18 -26 -27 -26 -85 l0 -64 -60 0 c-69 0 -100 -21
-100 -68 0 -47 36 -72 103 -72 l57 0 0 -55 c0 -64 22 -95 70 -95 46 0 70 33
70 97 l0 53 43 0 c63 0 86 10 102 41 16 29 12 53 -13 82 -11 12 -30 17 -74 17
l-58 0 0 60 c0 51 -4 65 -25 85 -30 30 -54 31 -89 4z"/>
<path d="M3796 4079 c-25 -19 -26 -25 -26 -109 0 -93 8 -112 50 -125 20 -6 59
9 72 29 4 6 8 50 8 98 0 82 -1 88 -26 107 -15 12 -32 21 -39 21 -7 0 -24 -9
-39 -21z"/>
<path d="M2330 3985 c-8 -2 -49 -9 -90 -15 -92 -15 -194 -46 -325 -97 -492
-194 -896 -664 -996 -1159 -26 -130 -22 -172 20 -207 26 -21 43 -25 157 -33
71 -4 203 -8 294 -8 157 0 172 2 305 36 233 61 305 72 470 72 186 -1 322 -27
583 -113 477 -157 595 -183 822 -185 85 0 216 3 290 7 227 14 240 25 240 181
-1 469 -309 982 -760 1268 -189 120 -457 218 -673 247 -70 10 -298 13 -337 6z
m136 -90 c120 -54 188 -161 188 -295 0 -92 -23 -148 -89 -219 -78 -83 -178
-117 -291 -99 -69 11 -129 45 -184 104 -62 68 -85 124 -85 214 0 65 4 84 33
142 79 161 264 227 428 153z m434 -140 c128 -41 388 -174 369 -188 -2 -2 -43
-17 -91 -34 -134 -48 -240 -114 -338 -213 -120 -119 -206 -251 -249 -382 -13
-38 -26 -68 -29 -68 -4 0 -50 15 -102 34 -52 19 -130 39 -172 46 -152 25 -371
-2 -510 -62 l-47 -20 -88 66 c-95 72 -186 112 -316 141 l-77 17 62 91 c81 122
256 293 392 386 57 39 111 71 118 71 9 0 14 -18 16 -62 6 -121 77 -267 166
-344 22 -19 73 -51 111 -70 251 -124 542 -17 666 244 27 55 32 79 36 166 3 55
1 125 -5 154 -5 28 -6 52 -1 52 4 0 44 -11 89 -25z m627 -403 c57 -52 173
-188 173 -203 0 -3 -43 -9 -95 -12 -172 -12 -342 -87 -465 -207 -72 -71 -115
-132 -180 -256 l-42 -81 -67 19 c-36 11 -70 24 -75 28 -5 5 -21 38 -36 74
l-28 65 24 65 c34 96 86 193 138 262 130 174 356 301 536 303 53 0 57 -2 117
-57z m242 -378 c36 -8 62 -49 92 -146 l17 -58 -96 0 c-173 0 -273 -42 -401
-167 -84 -81 -85 -82 -147 -88 -58 -7 -127 5 -138 24 -9 13 51 139 97 202 75
106 212 194 343 223 74 15 181 20 233 10z m-2449 -70 c62 -18 210 -92 210
-105 0 -5 -6 -9 -12 -9 -7 0 -49 -16 -93 -35 l-80 -35 -100 31 c-55 17 -105
33 -112 35 -9 2 -7 17 6 56 34 96 29 91 80 83 25 -3 71 -13 101 -21z m950
-124 c59 -9 215 -58 208 -65 -2 -2 -37 4 -78 12 -121 25 -369 23 -507 -5 -62
-12 -121 -25 -130 -27 -41 -12 67 36 114 50 145 44 266 55 393 35z"/>
<path d="M1645 3261 c-32 -13 -55 -46 -62 -84 -5 -32 -1 -41 30 -72 39 -39 78
-45 127 -20 32 17 51 65 43 109 -11 55 -82 89 -138 67z"/>
<path d="M3556 3844 c-22 -22 -20 -70 4 -94 15 -15 33 -20 73 -20 68 0 97 19
97 65 0 51 -21 65 -95 65 -44 0 -68 -5 -79 -16z"/>
<path d="M2020 2394 c-209 -23 -439 -97 -614 -196 -69 -39 -70 -39 -101 -23
-27 15 -30 21 -27 54 3 30 -2 41 -28 66 -30 28 -36 30 -127 34 -116 4 -164 -9
-194 -50 -32 -45 -34 -95 -9 -216 41 -202 124 -361 215 -411 27 -16 140 -17
1283 -22 l1253 -5 -51 -57 c-35 -39 -63 -61 -88 -68 -24 -6 -403 -10 -1098
-10 -749 0 -1070 -3 -1093 -11 -65 -23 -69 -82 -9 -148 153 -166 422 -333 652
-405 222 -70 374 -92 570 -83 655 28 1240 454 1467 1069 36 99 36 120 1 160
l-29 31 -279 2 c-155 2 -315 8 -359 15 -158 23 -344 72 -575 150 -306 104
-376 119 -570 124 -85 2 -171 2 -190 0z m398 -189 c70 -14 163 -38 206 -53
l78 -29 -98 -7 c-107 -7 -140 -21 -150 -61 -10 -40 3 -70 38 -88 29 -15 105
-17 685 -20 359 -1 655 -5 658 -8 9 -9 -20 -70 -30 -62 -4 5 -5 3 -1 -4 3 -6
1 -23 -5 -36 -15 -34 -13 -34 -756 -33 l-621 1 -27 25 c-15 14 -55 61 -90 106
-69 88 -111 124 -183 157 -42 20 -68 22 -267 27 l-220 5 80 28 c234 80 469 98
703 52z m-1288 -75 c0 -48 26 -98 62 -120 18 -11 39 -20 46 -20 7 0 26 -10 42
-22 29 -21 34 -22 383 -19 406 3 407 3 482 -81 25 -28 45 -54 45 -60 0 -5
-185 -8 -478 -6 -526 3 -513 2 -546 66 -22 43 -74 203 -82 250 -6 40 -6 42 20
42 22 0 26 -4 26 -30z m1376 -810 c518 0 863 -4 860 -9 -9 -14 -168 -116 -201
-129 -17 -6 -107 -12 -212 -14 -175 -3 -182 -4 -207 -27 -17 -16 -26 -36 -28
-65 -3 -40 -4 -41 -48 -48 -60 -9 -294 -9 -345 0 -37 7 -40 10 -45 47 -12 86
-37 95 -268 95 l-179 0 -89 56 c-89 55 -159 114 -121 100 10 -3 408 -6 883 -6z"/>
</g>
</svg>
